<?xml version="1.0" standalone="no"?>
<!DOCTYPE svg PUBLIC "-//W3C//DTD SVG 20010904//EN"
 "http://www.w3.org/TR/2001/REC-SVG-20010904/DTD/svg10.dtd">
<svg version="1.0" xmlns="http://www.w3.org/2000/svg"
 width="451.000000pt" height="451.000000pt" viewBox="0 0 451.000000 451.000000"
 preserveAspectRatio="xMidYMid meet">
<metadata>
Created by potrace 1.11, written by Peter Selinger 2001-2013
</metadata>
<g transform="translate(0.000000,451.000000) scale(0.100000,-0.100000)"
fill="#000000" stroke="none">
<path d="M930 2710 l0 -1800 48 35 c75 53 151 85 206 85 41 0 53 -5 81 -33 55
-55 70 -148 36 -222 -24 -54 -100 -120 -167 -145 -30 -11 -59 -20 -64 -20 -6
0 -10 -4 -10 -8 0 -9 1178 -595 1195 -595 18 0 1195 586 1195 595 0 4 -4 8
-10 8 -5 0 -34 9 -64 20 -67 25 -143 91 -167 145 -34 74 -19 167 36 222 28 28
40 33 81 33 55 0 131 -32 206 -85 l48 -35 0 1800 0 1800 -1325 0 -1325 0 0
-1800z m1361 1619 c17 -9 20 -19 18 -62 -2 -29 -2 -145 -1 -259 l2 -207 48 -6
c164 -23 197 -31 200 -48 8 -42 -4 -47 -65 -25 -32 11 -80 21 -108 22 l-50 1
-3 -67 -3 -68 -34 0 -35 0 -2 68 -2 67 -3 -67 c-4 -70 -7 -73 -50 -62 -19 5
-22 14 -25 68 l-3 61 -50 -2 c-27 -1 -76 -11 -107 -22 l-58 -20 0 33 0 33 117
16 c64 9 117 18 119 20 2 1 4 117 5 257 3 216 6 257 19 267 19 15 45 16 71 2z
m39 -1214 l0 -336 -30 -59 c-17 -33 -32 -60 -35 -60 -3 0 -5 178 -5 395 l0
395 35 0 35 0 0 -335z m-80 24 l0 -300 -26 -45 c-14 -24 -30 -47 -35 -50 -5
-3 -9 136 -9 340 0 375 -3 351 53 355 16 1 17 -20 17 -300z m-3 -466 c-2 -21
-4 -6 -4 32 0 39 2 55 4 38 2 -18 2 -50 0 -70z m11 -895 c1 450 5 572 15 572
6 0 22 -3 35 -6 l22 -6 0 -568 0 -567 -36 -46 c-20 -26 -37 -47 -38 -47 -1 0
-19 22 -39 49 l-38 49 3 547 3 547 30 26 30 25 5 -574 5 -574 3 573z"/>
<path d="M2248 3853 c7 -3 16 -2 19 1 4 3 -2 6 -13 5 -11 0 -14 -3 -6 -6z"/>
</g>
</svg>
